<svg id="Layer_1" data-name="Layer 1" xmlns="http://www.w3.org/2000/svg" viewBox="0 0 365 365"><defs><style>.cls-1{fill:#9e9d9e;}.cls-2{fill:#bdbdbd;}.cls-3{fill:#e0e0e0;}.cls-4{fill:#eee;}</style></defs><title>icon-no-wifi</title><path class="cls-1" d="M364.14,128.7a4,4,0,0,0-.47-.58,256.2,256.2,0,0,0-362.32,0,4,4,0,0,0,0,5.67l26.49,26.49a4,4,0,0,0,5.66,0,210.49,210.49,0,0,1,298,0,4,4,0,0,0,5.66,0l26.49-26.49a4,4,0,0,0,.47-5.08Zm0,0"/><path class="cls-2" d="M182.5,123.14A184.88,184.88,0,0,0,50.93,177.73a4,4,0,0,0,0,5.66l26.41,26.41a4,4,0,0,0,5.66,0,140.56,140.56,0,0,1,199,0,4,4,0,0,0,5.66,0l26.41-26.41a4,4,0,0,0,0-5.66A184.88,184.88,0,0,0,182.5,123.14Zm0,0"/><path class="cls-3" d="M182.5,193.2a115.29,115.29,0,0,0-82.05,34,4,4,0,0,0,0,5.66l26.41,26.41a4,4,0,0,0,5.66,0,70.61,70.61,0,0,1,100,0,4,4,0,0,0,5.66,0l26.41-26.41a4,4,0,0,0,0-5.66,115.29,115.29,0,0,0-82.05-34Zm0,0"/><path class="cls-4" d="M182.5,267.43a40.21,40.21,0,0,0-28.63,11.86,4,4,0,0,0,0,5.66l25.8,25.8a4,4,0,0,0,5.66,0l25.8-25.8a4,4,0,0,0,0-5.66,40.2,40.2,0,0,0-28.63-11.86Zm0,0"/></svg>