<svg id="Layer_1" data-name="Layer 1" xmlns="http://www.w3.org/2000/svg" viewBox="0 0 151.56 151.56"><defs><style>.cls-1{fill:#009688;}.cls-2{fill:#8d6e63;}.cls-3{fill:#bdbdbd;}.cls-4{fill:#f5f5f5;}.cls-5{fill:#e6e6e6;}</style></defs><title>icon-kitchen</title><rect class="cls-1" y="17.51" width="13.07" height="20.9"/><rect class="cls-1" x="28.75" y="17.51" width="39.2" height="20.9"/><rect class="cls-1" x="83.63" y="17.51" width="36.58" height="20.9"/><rect class="cls-1" x="135.89" y="17.51" width="15.67" height="20.9"/><path class="cls-2" d="M28.75,51.47H13.07V12.28a7.84,7.84,0,0,1,15.68,0Zm0,0"/><path class="cls-2" d="M83.63,54.09H67.95V12.28a7.84,7.84,0,0,1,15.68,0Zm0,0"/><path class="cls-3" d="M43,137.72H7.83V51.47H43a4,4,0,0,1,4,4v78.15a4,4,0,0,1-4,4Zm0,0"/><path class="cls-3" d="M78.4,145.55,67.95,132.49V54.09H94.08v2c0,46.13-5.33,65.32-15.68,89.46Zm0,0"/><path class="cls-4" d="M75.78,77.61A2.61,2.61,0,0,1,73.16,75V61.94a2.62,2.62,0,0,1,5.23,0V75a2.61,2.61,0,0,1-2.62,2.6Zm0,0"/><path class="cls-4" d="M15.68,77.61A2.61,2.61,0,0,1,13.07,75V61.94a2.62,2.62,0,0,1,5.23,0V75a2.61,2.61,0,0,1-2.62,2.6Zm0,0"/><path class="cls-2" d="M135.89,51.47H120.21V12.28a7.84,7.84,0,0,1,15.68,0Zm0,0"/><path class="cls-3" d="M130.66,147.12a70.11,70.11,0,0,1-13.07-40.77V51.47h23.52c0,17-10.45,26.4-10.45,95.65Zm0,0"/><rect class="cls-5" x="33.96" y="51.47" width="5.23" height="86.24"/><path class="cls-4" d="M125.43,77.61a2.6,2.6,0,0,1-2.6-2.6V61.94a2.61,2.61,0,1,1,5.22,0V75a2.6,2.6,0,0,1-2.62,2.6Zm0,0"/></svg>