<svg id="Layer_1" width="16" height="16" data-name="Layer 1" xmlns="http://www.w3.org/2000/svg" viewBox="0 0 512 512"><defs><style>.cls-1{fill:#a0815c;}.cls-2{fill:#00a371;}.cls-3{fill:#06cc93;}.cls-4{fill:#fff;}.cls-5{fill:#e0e0e0;}.cls-6{fill:#806749;}</style></defs><title>icon-hostel</title><path class="cls-1" d="M37.94,230.7V215.53H185.68V175.05H37.94V23.27a15.18,15.18,0,0,0-30.36,0V503.91H37.94V423H185.68V382.48H37.94V230.7Z"/><path class="cls-2" d="M474.06,164.93v97.14H185.68V124.46H433.58a40.47,40.47,0,0,1,40.47,40.47Z"/><path class="cls-3" d="M160.38,124.46H109.79c-14,0-25.3-25.3-25.3-25.3s11.33-25.3,25.3-25.3h50.59c14,0,25.3,25.3,25.3,25.3S174.35,124.46,160.38,124.46Z"/><path class="cls-4" d="M110.34,109.28c-2.11-1-5.64-5.24-8.65-10.12,3-4.87,6.54-9.12,8.65-10.12h49.49c2.11,1,5.64,5.24,8.65,10.12-3,4.87-6.54,9.12-8.65,10.12Z"/><path class="cls-4" d="M78.42,124.46a40.47,40.47,0,0,0-40.47,40.47v10.12H185.68V124.46Z"/><rect class="cls-5" x="155.32" y="124.46" width="30.36" height="50.59"/><rect class="cls-6" x="155.32" y="175.05" width="30.36" height="40.47"/><path class="cls-3" d="M454.32,130.18c-7.39,56.18-94.5,100.53-200.85,100.53a359.89,359.89,0,0,1-67.79-6.29v-100H433.58A40.26,40.26,0,0,1,454.32,130.18Z"/><path class="cls-4" d="M406.26,155.32H391.08V140.14h15.18Zm-30.36,0H321.26V140.14h54.64Z"/><path class="cls-2" d="M474.06,372.36V469.5H185.68V331.89H433.58a40.47,40.47,0,0,1,40.47,40.47Z"/><path class="cls-3" d="M160.38,331.89H109.79c-14,0-25.3-25.3-25.3-25.3s11.33-25.3,25.3-25.3h50.59c14,0,25.3,25.3,25.3,25.3S174.35,331.89,160.38,331.89Z"/><path class="cls-4" d="M110.34,316.71c-2.11-1-5.64-5.24-8.65-10.12,3-4.87,6.54-9.12,8.65-10.12h49.49c2.11,1,5.64,5.24,8.65,10.12-3,4.87-6.54,9.12-8.65,10.12Z"/><path class="cls-1" d="M489.23,96.13c-8.38,0-15.18,9.2-15.18,20.54V503.91h30.36V116.67C504.41,105.32,497.62,96.13,489.23,96.13Z"/><path class="cls-4" d="M78.42,331.89a40.47,40.47,0,0,0-40.47,40.47v10.12H185.68V331.89Z"/><rect class="cls-5" x="155.32" y="331.89" width="30.36" height="50.59"/><rect class="cls-6" x="155.32" y="382.48" width="30.36" height="40.47"/><path class="cls-3" d="M454.32,337.61c-7.39,56.18-94.5,100.53-200.85,100.53a359.89,359.89,0,0,1-67.79-6.29v-100H433.58A40.26,40.26,0,0,1,454.32,337.61Z"/><path class="cls-4" d="M406.26,362.75H391.08V347.57h15.18Zm-30.36,0H321.26V347.57h54.64Z"/><path d="M489.23,88.54a22.79,22.79,0,0,0-22.77,22.77v18.62a47.88,47.88,0,0,0-32.89-13.06H184.06a82.26,82.26,0,0,0,8.54-14.61l1.39-3.1-1.39-3.1c-2.23-5-14.24-29.79-32.22-29.79H109.79c-18,0-30,24.81-32.22,29.79l-1.39,3.1,1.39,3.1a82.36,82.36,0,0,0,8.54,14.61H78.42a47.88,47.88,0,0,0-32.89,13.06V23.27A22.77,22.77,0,0,0,0,23.27V511.49H45.53V430.55H178.09v46.55H466.47v34.4H512V111.3A22.79,22.79,0,0,0,489.23,88.54ZM466.47,337.36a47.88,47.88,0,0,0-32.89-13.06H184.06a82.26,82.26,0,0,0,8.54-14.61l1.39-3.1-1.39-3.1c-2.23-5-14.25-29.79-32.22-29.79H109.79c-18,0-30,24.81-32.22,29.79l-1.39,3.1,1.39,3.1a82.36,82.36,0,0,0,8.54,14.61H78.42a47.88,47.88,0,0,0-32.89,13.06V223.11H178.09v46.55H466.47Zm-420.93,35a32.92,32.92,0,0,1,32.89-32.89h99.67v35.42H45.53Zm47.4-65.77c4.34-8.23,11.66-17.71,16.85-17.71h50.59c5.2,0,12.51,9.48,16.85,17.71-4.34,8.23-11.66,17.71-16.85,17.71H109.79C104.59,324.3,97.27,314.82,92.94,306.59ZM193.26,132H433.58a32.92,32.92,0,0,1,32.89,32.89v89.55H193.26V132ZM92.94,99.16c4.34-8.23,11.66-17.71,16.85-17.71h50.59c5.2,0,12.51,9.48,16.85,17.71-4.34,8.23-11.66,17.71-16.85,17.71H109.79C104.59,116.87,97.27,107.39,92.94,99.16ZM78.42,132h99.67v35.42H45.53v-2.53A32.92,32.92,0,0,1,78.42,132ZM30.36,415.37v80.95H15.18v-473a7.59,7.59,0,0,1,15.18,0V182.64H178.09v25.3H30.36V390.07H178.09v25.3Zm162.91,46.55V339.48H433.58a32.92,32.92,0,0,1,32.89,32.89v89.55Zm303.56,34.4H481.64v-385a7.59,7.59,0,0,1,15.18,0Z"/><rect x="426.5" y="432.06" width="15.18" height="15.18"/><rect x="395.13" y="432.06" width="15.18" height="15.18"/><rect x="363.76" y="432.06" width="15.18" height="15.18"/><rect x="332.4" y="432.06" width="15.18" height="15.18"/><rect x="301.03" y="432.06" width="15.18" height="15.18"/><rect x="269.66" y="432.06" width="15.18" height="15.18"/><rect x="238.29" y="432.06" width="15.18" height="15.18"/><rect x="208.44" y="432.06" width="15.18" height="15.18"/><rect x="208.44" y="403.9" width="15.18" height="15.18"/><rect x="208.44" y="375.73" width="15.18" height="15.18"/><rect x="208.44" y="347.57" width="15.18" height="15.18"/><rect x="426.5" y="223.62" width="15.18" height="15.18"/><rect x="395.13" y="223.62" width="15.18" height="15.18"/><rect x="363.76" y="223.62" width="15.18" height="15.18"/><rect x="332.4" y="223.62" width="15.18" height="15.18"/><rect x="301.03" y="223.62" width="15.18" height="15.18"/><rect x="269.66" y="223.62" width="15.18" height="15.18"/><rect x="238.29" y="223.62" width="15.18" height="15.18"/><rect x="208.44" y="223.62" width="15.18" height="15.18"/><rect x="208.44" y="195.46" width="15.18" height="15.18"/><rect x="208.44" y="167.29" width="15.18" height="15.18"/><rect x="208.44" y="139.13" width="15.18" height="15.18"/></svg>