<?xml version="1.0" encoding="utf-8"?>
<!-- Generator: Adobe Illustrator 22.0.1, SVG Export Plug-In . SVG Version: 6.00 Build 0)  -->
<svg version="1.1" id="Layer_1" width="40" height="40" xmlns="http://www.w3.org/2000/svg" xmlns:xlink="http://www.w3.org/1999/xlink" x="0px" y="0px"
	 viewBox="0 0 308.4 446" style="enable-background:new 0 0 308.4 446;" xml:space="preserve">
<style type="text/css">
	.st0{clip-path:url(#SVGID_4_);}
	.st1{fill:#E74C3C;}
	.st2{display:none;}
	.st3{display:inline;fill:#FFFFFF;}
	.st4{display:inline;}
	.st5{clip-path:url(#SVGID_6_);fill:#FFFFFF;}
	.st6{fill:#FFFFFF;}
</style>
<g>
	<g>
		<defs>
			<polygon id="SVGID_1_" points="0,0 290.4,1 290.4,421.3 0,420.3 			"/>
		</defs>
		<clipPath id="SVGID_2_">
			<use xlink:href="#SVGID_1_"  style="overflow:visible;"/>
		</clipPath>
	</g>
</g>
<g>
	<g>
		<defs>
			<rect id="SVGID_3_" x="6.4" y="10" width="302" height="436"/>
		</defs>
		<clipPath id="SVGID_4_">
			<use xlink:href="#SVGID_3_"  style="overflow:visible;"/>
		</clipPath>
		<g class="st0">
			<path class="st1" d="M258.3,57.3c-57.6-57.6-151.1-57.6-208.7,0C-2.3,109.2-8.2,207,35.9,265.8L154,436.2l118.1-170.5
				C316.1,207,310.3,109.2,258.3,57.3L258.3,57.3z M155.4,208.9c-26.9,0-48.7-21.8-48.7-48.7c0-26.9,21.8-48.7,48.7-48.7
				c26.9,0,48.7,21.8,48.7,48.7C204.1,187.1,182.3,208.9,155.4,208.9L155.4,208.9z M155.4,208.9"/>
		</g>
	</g>
</g>
<rect x="64" y="94.4" class="st1" width="165" height="136"/>
<g id="Hostel" class="st2">
	<path class="st3" d="M125.2,192.1c0,6.5-5.3,11.8-11.8,11.8c-6.5,0-11.8-5.3-11.8-11.8c0-6.5,5.3-11.8,11.8-11.8
		C119.9,180.4,125.2,185.6,125.2,192.1L125.2,192.1z M125.2,192.1"/>
	<path class="st3" d="M196.9,182.8 M196.9,182.8h-56.9c-5.9,0-10.7,4.9-10.7,10.4c0,5.9,4.8,10.4,10.7,10.4h57.2
		c5.9,0,10.8-4.9,10.8-10.4C207.7,187.6,202.8,182.8,196.9,182.8L196.9,182.8z"/>
	<path class="st3" d="M125.2,121.8c0,6.5-5.3,11.8-11.8,11.8c-6.5,0-11.8-5.3-11.8-11.8c0-6.5,5.3-11.8,11.8-11.8
		C119.9,110,125.2,115.3,125.2,121.8L125.2,121.8z M125.2,121.8"/>
	<path class="st3" d="M140.1,133.6h57.2c5.9,0,10.8-4.9,10.8-10.4c0-5.9-4.9-10.4-10.8-10.4h-57.2c-5.9,0-10.7,4.9-10.7,10.4
		C129.3,129,134.2,133.6,140.1,133.6L140.1,133.6z M140.1,133.6"/>
	<path class="st3" d="M222.6,104.1c-4.5,0-8.3,3.8-8.3,8.3v27.4H95v-37.4c0-4.5-3.8-8.3-8.3-8.3c-4.5,0-8.3,3.8-8.3,8.3v137.3
		c0,4.5,3.8,8.3,8.3,8.3c4.5,0,8.3-3.8,8.3-8.3v-9.7h118.9v9.7c0,4.5,3.8,8.3,8.3,8.3c4.5,0,8.3-3.8,8.3-8.3V112.4
		C230.9,107.9,227.1,104.1,222.6,104.1L222.6,104.1z M95,210.2v-49.9h118.9v50.3H95V210.2z M95,210.2"/>
</g>
<g id="Hotel" class="st2">
	<path class="st3" d="M229.9,193.2l-16.6-26.3v-48.4l-6.8-6.8H102.9l-6.8,6.8v48.4l-16.6,26.3H229.9z M199.7,125.3V159
		c-8.7-2.3-23.8-5-45-5c-21.2,0-36.3,2.8-45,5v-33.8H199.7z M199.7,125.3"/>
	<path class="st3" d="M79.2,201.5V215H95v18.6h13.5V215h92.4v18.6h13.5V215h15.8v-13.5H79.2z M79.2,201.5"/>
	<path class="st3" d="M149.2,147v-7.9c0-4.7-6.8-8.5-15.2-8.5s-15.2,3.8-15.2,8.5v11.8c0,0,8.9-2.3,15.1-2.8
		C139.5,147.6,149.2,147,149.2,147L149.2,147z M149.2,147"/>
	<path class="st3" d="M190.5,150.9v-11.8c0-4.7-6.8-8.5-15.2-8.5c-8.4,0-15.2,3.8-15.2,8.5v7.9c0,0,9.7,0.6,15.2,1.1
		C181.6,148.7,190.5,150.9,190.5,150.9L190.5,150.9z M190.5,150.9"/>
</g>
<g id="Home" class="st2">
	<g class="st4">
		<defs>
			<rect id="SVGID_5_" x="78.4" y="113.8" width="152.2" height="120.8"/>
		</defs>
		<clipPath id="SVGID_6_">
			<use xlink:href="#SVGID_5_"  style="overflow:visible;"/>
		</clipPath>
		<path class="st5" d="M153.9,138.1L100,182.5c0,0.1,0,0.2,0,0.3c0,0.1,0,0.2,0,0.3v45c0,1.6,0.6,3,1.8,4.2c1.2,1.2,2.6,1.8,4.2,1.8
			h36v-36h24v36h36c1.6,0,3-0.6,4.2-1.8c1.2-1.2,1.8-2.6,1.8-4.2v-45c0-0.3,0-0.4-0.1-0.6L153.9,138.1z M153.9,138.1"/>
		<path class="st5" d="M228.4,172.4l-20.5-17.1v-38.2c0-0.9-0.3-1.6-0.8-2.2c-0.6-0.6-1.3-0.8-2.2-0.8h-18c-0.9,0-1.6,0.3-2.2,0.8
			c-0.6,0.6-0.8,1.3-0.8,2.2v18.3L161,116.2c-2-1.6-4.4-2.4-7.1-2.4c-2.8,0-5.1,0.8-7.1,2.4l-67.4,56.1c-0.6,0.5-1,1.2-1,2
			c-0.1,0.8,0.2,1.6,0.7,2.2l5.8,6.9c0.5,0.6,1.2,0.9,2,1c0.8,0.1,1.5-0.2,2.3-0.7l64.8-54.1l64.9,54.1c0.5,0.4,1.2,0.7,2,0.7h0.3
			c0.8-0.1,1.5-0.5,2-1l5.8-6.9c0.5-0.6,0.7-1.4,0.7-2.2C229.4,173.6,229,172.9,228.4,172.4L228.4,172.4z M228.4,172.4"/>
	</g>
</g>
<g class="st2">
	<path class="st3" d="M94.7,86v174.1h46.6v-38.9h28v38.9H216V86H94.7z M146.8,202.8h-28V180h28V202.8z M146.8,166.1h-28v-22.9h28
		V166.1z M146.8,129.4h-28v-22.9h28V129.4z M191.9,202.8h-28V180h28V202.8z M191.9,166.1h-28v-22.9h28V166.1z M191.9,129.4h-28
		v-22.9h28V129.4z M191.9,129.4"/>
</g>
<g>
	<path class="st6" d="M205,141.9l-1.9-9.3c-0.1-0.6,0.1-1.2,0.7-1.7l6.2-5c1.3-1.1,0.6-3-1.3-3.2l-8.5-1c-0.7-0.1-1.4-0.5-1.7-1
		l-3.8-6.4c-0.8-1.4-3.2-1.4-4.1,0l-3.8,6.4c-0.3,0.6-1,0.9-1.7,1l-8.5,1c-1.9,0.2-2.6,2.1-1.3,3.2l6.2,5c0.5,0.4,0.8,1.1,0.7,1.7
		l-1.6,7.7c-0.2,0.9-1.1,1.6-2.2,1.6h-52.7c-1.1,0-2.1-0.7-2.2-1.6l-1.6-7.7c-0.1-0.6,0.1-1.2,0.7-1.7l6.2-5c1.3-1.1,0.6-3-1.2-3.2
		l-8.5-1c-0.7-0.1-1.4-0.5-1.7-1l-3.8-6.4c-0.8-1.4-3.2-1.4-4.1,0l-3.8,6.4c-0.3,0.6-1,0.9-1.7,1l-8.5,1c-1.9,0.2-2.6,2.1-1.3,3.2
		l6.2,5c0.5,0.4,0.8,1.1,0.7,1.7l-1.7,8.3c-0.1,0.7-0.7,1.2-1.5,1.4c-4.7,1.3-8.2,5-8.2,9.4v83.2c0,6.5,6.3,11.7,14.2,11.7h98.3
		c7.8,0,14.2-5.3,14.2-11.7v-83.2C216.1,146.5,211.2,142.2,205,141.9L205,141.9z M193.7,138.3L193.7,138.3c2.1,0.9,1.3,3.5-1.1,3.5
		h0c-2.4,0-3.2-2.6-1.1-3.5l0,0C192.2,138,193,138,193.7,138.3z M112.3,138.3L112.3,138.3c2.1,0.9,1.3,3.5-1.1,3.5h0
		c-2.4,0-3.2-2.6-1.1-3.5h0C110.9,138,111.7,138,112.3,138.3z M160.8,243.7h-14.5c-1.3,0-2.3-0.8-2.3-1.9v-27.6c0-1,1-1.9,2.3-1.9
		h14.5c1.3,0,2.3,0.8,2.3,1.9v27.6C163,242.9,162,243.7,160.8,243.7z M205.9,234.9c0,1.8-1.8,3.3-4,3.3h-32.8
		c-1.3,0-2.3-0.8-2.3-1.9v-25.3c0-1-1-1.9-2.3-1.9h-22.2c-1.3,0-2.3,0.8-2.3,1.9v25.3c0,1-1,1.9-2.3,1.9h-34.3c-2.2,0-4-1.5-4-3.3
		v-81.4c0-1.8,1.8-3.3,4-3.3h98.3c2.2,0,4,1.5,4,3.3V234.9z M205.9,236.8"/>
	<path class="st6" d="M112.4,159.5h17.2c1.3,0,2.3,0.8,2.3,1.9v14.2c0,1-1,1.9-2.3,1.9h-17.2c-1.3,0-2.3-0.8-2.3-1.9v-14.2
		C110.2,160.4,111.2,159.5,112.4,159.5z"/>
	<path class="st6" d="M144.3,159.5h17.1c1.3,0,2.3,0.8,2.3,1.9v14.2c0,1-1,1.9-2.3,1.9h-17.1c-1.3,0-2.3-0.8-2.3-1.9v-14.2
		C142.1,160.4,143.1,159.5,144.3,159.5z"/>
	<path class="st6" d="M177.1,159.5h17.2c1.3,0,2.3,0.8,2.3,1.9v14.2c0,1-1,1.9-2.3,1.9h-17.2c-1.3,0-2.3-0.8-2.3-1.9v-14.2
		C174.9,160.4,175.9,159.5,177.1,159.5z"/>
	<path class="st6" d="M112.4,183.8h17.2c1.3,0,2.3,0.8,2.3,1.9v14.2c0,1-1,1.9-2.3,1.9h-17.2c-1.3,0-2.3-0.8-2.3-1.9v-14.2
		C110.2,184.7,111.2,183.8,112.4,183.8z"/>
	<path class="st6" d="M144.3,183.8h17.1c1.3,0,2.3,0.8,2.3,1.9v14.2c0,1-1,1.9-2.3,1.9h-17.1c-1.3,0-2.3-0.8-2.3-1.9v-14.2
		C142.1,184.7,143.1,183.8,144.3,183.8z"/>
	<path class="st6" d="M177.1,183.8h17.2c1.3,0,2.3,0.8,2.3,1.9v14.2c0,1-1,1.9-2.3,1.9h-17.2c-1.3,0-2.3-0.8-2.3-1.9v-14.2
		C174.9,184.7,175.9,183.8,177.1,183.8z"/>
	<path class="st6" d="M177.1,209.2h17.2c1.3,0,2.3,0.8,2.3,1.9v14.2c0,1-1,1.9-2.3,1.9h-17.2c-1.3,0-2.3-0.8-2.3-1.9v-14.2
		C174.9,210,175.9,209.2,177.1,209.2z"/>
	<path class="st6" d="M112.4,209.2h17.2c1.3,0,2.3,0.8,2.3,1.9v14.2c0,1-1,1.9-2.3,1.9h-17.2c-1.3,0-2.3-0.8-2.3-1.9v-14.2
		C110.2,210,111.2,209.2,112.4,209.2z"/>
	<path class="st6" d="M135.8,139.9l16.1-7c0.7-0.3,1.4-0.3,2.1,0l16.1,7c1.7,0.7,3.6-0.4,3.3-2l-3.1-14.8c-0.1-0.6,0.1-1.2,0.7-1.7
		l13-10.5c1.3-1.1,0.6-3-1.3-3.2l-18-2.2c-0.7-0.1-1.4-0.5-1.7-1L155,91c-0.8-1.4-3.2-1.4-4.1,0l-8,13.5c-0.3,0.6-1,0.9-1.7,1
		l-18,2.2c-1.9,0.2-2.6,2.1-1.3,3.2l13,10.5c0.5,0.4,0.8,1.1,0.7,1.7l-3.1,14.9C132.1,139.5,134.1,140.6,135.8,139.9z M131.7,141.7"
		/>
</g>
</svg>
