<?xml version="1.0" encoding="iso-8859-1"?>
<!-- Generator: Adobe Illustrator 22.0.1, SVG Export Plug-In . SVG Version: 6.00 Build 0)  -->
<svg version="1.1" id="Capa_1" xmlns="http://www.w3.org/2000/svg" xmlns:xlink="http://www.w3.org/1999/xlink" x="0px" y="0px"
	 viewBox="-49 141 512 512" style="enable-background:new -49 141 512 512;" xml:space="preserve">
<g>
	<path style="fill:#F8B64C;" d="M137.613,471.923c0.853,1.163,0.747,1.163-0.107,0H137.613z"/>
	<path style="fill:#F8B64C;" d="M276.589,471.923c-0.853,1.163-0.96,1.163-0.107,0H276.589z"/>
</g>
<rect id="SVGCleanerId_0" x="276.493" y="471.88" style="fill:#F8B64C;" width="0.011" height="0.011"/>
<g>
	<rect id="SVGCleanerId_0_1_" x="276.493" y="471.88" style="fill:#F8B64C;" width="0.011" height="0.011"/>
</g>
<g>
	<path style="fill:#F8B64C;" d="M137.507,337.779c1.557,17.877-7.104,33.227-19.371,34.315
		c-12.245,1.067-23.477-12.544-25.024-30.421c-1.579-17.877,7.104-33.227,19.349-34.293
		C124.739,306.301,135.928,319.923,137.507,337.779"/>
	<path style="fill:#F8B64C;" d="M321.027,341.672c-1.557,17.856-12.768,31.477-25.045,30.4
		c-12.245-1.067-20.917-16.416-19.349-34.293c1.568-17.877,12.768-31.477,25.024-30.421
		C313.923,308.445,322.595,323.795,321.027,341.672"/>
</g>
<path style="fill:#FFD15C;" d="M207.075,188.584c-56.939,0-103.083,46.165-103.083,103.083v30.955c0,7.893,0.48,15.787,1.461,23.605
	v0.043c4.896,40.043,22.144,77.547,49.355,107.339l9.771,10.709c8.981,9.835,21.685,15.456,34.997,15.456h14.933
	c13.312,0,26.016-5.6,34.997-15.435l9.813-10.731c27.232-29.792,44.48-67.339,49.397-107.371c0.981-7.851,1.44-15.712,1.44-23.605
	v-30.955C310.157,234.76,263.992,188.584,207.075,188.584"/>
<path style="fill:#F8B64C;" d="M276.493,471.965v-0.107h0.107v-40.224h-0.021c-5.205,7.691-10.933,15.061-17.248,21.963
	l-9.813,10.752c-8.981,9.835-21.685,15.413-34.997,15.413h-14.933c-13.312,0-26.016-5.6-34.997-15.435l-9.771-10.731
	c-6.293-6.88-12-14.251-17.227-21.92c0,0-0.064-0.021-0.064-0.043v40.224l-9.6,3.499c41.355,48.96,116.747,48.981,158.144,0.064
	l0.043-0.064l-9.504-3.392L276.493,471.965L276.493,471.965z"/>
<path style="fill:#40596B;" d="M461.027,605.523c0-40.309-25.397-76.352-63.253-89.92l-111.691-40.224l-0.043,0.043
	c-41.397,48.917-116.789,48.896-158.144-0.043l-111.68,40.235c-37.856,13.557-63.253,49.6-63.253,89.92V653h508.064L461.027,605.523
	L461.027,605.523z"/>
<g style="opacity:0.1;">
	<g>
		<defs>
			<rect id="SVGID_1_" x="164.973" y="431.667" width="121.067" height="80.192"/>
		</defs>
		<clipPath id="SVGID_2_">
			<use xlink:href="#SVGID_1_"  style="overflow:visible;"/>
		</clipPath>
		<path style="clip-path:url(#SVGID_2_);fill:#40596B;" d="M276.493,471.965v-0.128h0.107v-40.213
			c-0.021,0.021-0.064,0.064-0.085,0.085c-5.184,7.648-10.891,14.997-17.184,21.877l-9.813,10.752
			c-8.981,9.835-21.685,15.413-34.997,15.413h-14.933c-13.109,0-25.557-5.461-34.517-15.019h-0.043l47.392,47.061
			c27.349-1.419,54.251-13.44,73.643-36.373l0.021-0.043l0.021-0.021l-9.504-3.392L276.493,471.965L276.493,471.965z"/>
	</g>
</g>
<path style="fill:#334A5E;" d="M374.403,585.587c-10.059-41.419-9.579-66.4-6.88-80.875l-63.019-22.731h-0.171
	c-21.003,31.392-56.725,29.835-97.333,29.835c-40.629,0-76.352,1.557-97.333-29.835h-0.128l-62.891,22.667
	c2.688,14.475,3.168,39.499-6.859,80.939c0,0-13.749,38.731-21.44,67.413h377.376C388.173,624.317,374.403,585.587,374.403,585.587"
	/>
<g>
	<polygon style="fill:#40596B;" points="137.507,471.837 109.549,481.981 162.381,579.667 206.989,512.093 	"/>
	<polygon style="fill:#40596B;" points="276.557,471.837 304.515,481.981 251.672,579.667 207.075,512.093 	"/>
	<rect x="251.053" y="623.88" style="fill:#40596B;" width="105.899" height="29.163"/>
	<rect x="57.219" y="623.88" style="fill:#40596B;" width="105.877" height="29.163"/>
</g>
<g>
	<path style="fill:#F2F2F2;" d="M215.864,564.189c0,4.853-3.957,8.811-8.811,8.811s-8.811-3.957-8.811-8.811
		c0-4.875,3.957-8.811,8.811-8.811S215.864,559.315,215.864,564.189"/>
	<path style="fill:#F2F2F2;" d="M215.864,631.272c0,4.875-3.957,8.811-8.811,8.811s-8.811-3.936-8.811-8.811
		c0-4.853,3.957-8.811,8.811-8.811S215.864,626.419,215.864,631.272"/>
</g>
<g style="opacity:0.1;">
	<g>
		<defs>
			<rect id="SVGID_3_" x="138.2" y="189.8" width="171.947" height="257.387"/>
		</defs>
		<clipPath id="SVGID_4_">
			<use xlink:href="#SVGID_3_"  style="overflow:visible;"/>
		</clipPath>
		<path style="clip-path:url(#SVGID_4_);fill:#40596B;" d="M138.2,320.648l126.539,126.539
			c24.021-28.683,39.392-63.712,43.979-100.96c0.981-7.851,1.44-15.712,1.44-23.605v-30.955c0-51.829-38.315-94.603-88.128-101.877
			L138.2,320.648z"/>
	</g>
</g>
<path style="fill:#334A5E;" d="M309.923,345.149c0,0-8.896-1.163-5.92-20.395c0,0,2.912-7.061-0.309-14.357
	c-4.245-9.621-6.016-20.128-8.107-30.443c-3.232-16.149-10.709-34.816-27.851-35.456c0,0-43.275,5.525-60.651,5.525
	c-17.44,0-60.704-5.525-60.704-5.525c-17.067,0.651-24.523,19.189-27.787,35.296c-2.101,10.443-4.043,21.024-8.224,30.816
	c-3.104,7.211-0.245,14.144-0.245,14.144c2.976,19.232-5.92,20.395-5.92,20.395c-23.669-17.749-8.853-85.504-8.853-85.504
	c25.141-89.557,111.755-84.373,111.755-84.373s86.539-5.184,111.691,84.373C318.776,259.656,333.613,327.4,309.923,345.149"/>
<path style="fill:#40596B;" d="M331.971,245.32c0,0,14.293,83.957-124.917,85.877C67.971,329.277,82.029,245.32,82.029,245.32
	L57.72,200.317l60.811-41.504L207.053,141l88.437,17.813l60.896,41.504l-24.309,45.003H331.971z"/>
<path style="fill:#ACB3BA;" d="M320.099,289.821c7.317-10.272,10.421-20.629,11.605-28.789
	c-34.645-11.52-76.224-17.835-125.067-18.496c-48.459,0.672-89.813,6.955-124.288,18.4c1.184,8.171,4.288,18.539,11.605,28.832
	c30.795-10.379,68.501-16.149,112.683-16.747C251.203,273.608,289.155,279.421,320.099,289.821"/>
<path style="fill:#F2F2F2;" d="M213.635,224.008c0,0-6.208,0.853-6.56,2.816c0-1.963-6.581-2.816-6.581-2.816
	c-26.421-1.419-20.043-26.443-20.043-26.443c7.296-9.579,0-20.565,0-20.565l10.475-11.189c8.331,8.523,16.149,0,16.149,0
	s7.979,8.523,16.149,0L233.677,177c0,0-7.275,10.976,0,20.565C233.677,197.565,240.056,222.589,213.635,224.008"/>
<polygon style="fill:#40596B;" points="207.075,177.405 211.32,190.525 225.133,190.525 213.965,198.653 218.243,211.752 
	207.075,203.656 195.907,211.752 200.152,198.653 188.995,190.525 202.797,190.525 "/>
</svg>
