<?xml version="1.0" encoding="utf-8"?>
<!-- Generator: Adobe Illustrator 22.0.1, SVG Export Plug-In . SVG Version: 6.00 Build 0)  -->
<svg version="1.1" id="Layer_1" xmlns="http://www.w3.org/2000/svg" xmlns:xlink="http://www.w3.org/1999/xlink" x="0px" y="0px"
	 viewBox="0 0 286.5 284.3" style="enable-background:new 0 0 286.5 284.3;" xml:space="preserve">
<style type="text/css">
	.st0{fill:#EF5350;}
	.st1{fill:#D43D21;}
	.st2{fill:#FAFAFA;}
</style>
<g>
	<path class="st0" d="M251.1,0H35.4C15.8,0,0,15.8,0,35.4v213.5c0,19.5,15.8,35.4,35.4,35.4h178.8v-36.9c0-19.5,15.8-35.4,35.4-35.4
		l36.9-1.8V35.4C286.5,15.8,270.6,0,251.1,0L251.1,0z M216.7,148.4c0,10.3-8.4,18.7-18.7,18.7h-29.7v29.7c0,10.4-8.4,18.7-18.7,18.7
		H137c-10.3,0-18.7-8.4-18.7-18.7v-29.7H88.5c-10.3,0-18.7-8.4-18.7-18.7v-12.5c0-10.3,8.4-18.7,18.7-18.7h29.7V87.4
		c0-10.4,8.4-18.7,18.7-18.7h12.5c10.3,0,18.7,8.4,18.7,18.7v29.7H198c10.4,0,18.7,8.4,18.7,18.7V148.4z M216.7,148.4"/>
	<path class="st1" d="M214.1,246.4v37.8l72.3-74.1h-36.1C230.4,210.2,214.1,226.4,214.1,246.4L214.1,246.4z M214.1,246.4"/>
	<path class="st2" d="M198,117.1h-29.7V87.4c0-10.4-8.4-18.7-18.7-18.7H137c-10.3,0-18.7,8.4-18.7,18.7v29.7H88.5
		c-10.3,0-18.7,8.4-18.7,18.7v12.5c0,10.3,8.4,18.7,18.7,18.7h29.7v29.7c0,10.4,8.4,18.7,18.7,18.7h12.5c10.3,0,18.7-8.4,18.7-18.7
		v-29.7H198c10.4,0,18.7-8.4,18.7-18.7v-12.5C216.7,125.5,208.3,117.1,198,117.1L198,117.1z M198,117.1"/>
</g>
</svg>
