<svg id="Capa_1" data-name="Capa 1" xmlns="http://www.w3.org/2000/svg" viewBox="0 0 512 512"><defs><style>.cls-1{fill:#eceff1;}.cls-2{fill:#cfd8dc;}.cls-3{fill:#90a4ae;}.cls-4{fill:#546e7a;}.cls-5{fill:#b0bec5;}.cls-6{fill:#78909c;}</style></defs><title>gym</title><path class="cls-1" d="M98.11,477.22,76.82,498.51A44.94,44.94,0,1,1,13.26,435l21.29-21.29a15,15,0,0,1,21,0L76.82,435l21.29,21.28A15,15,0,0,1,98.11,477.22Z"/><path class="cls-2" d="M98.11,477.22,76.82,498.51a44.7,44.7,0,0,1-63.56,0L76.82,435l21.29,21.28A15,15,0,0,1,98.11,477.22Z"/><path class="cls-1" d="M498.74,76.6,477.45,97.88a15,15,0,0,1-21,0L413.89,55.31a15,15,0,0,1,0-21L435.18,13C452.27-4,481.65-4,498.74,13A44.7,44.7,0,0,1,498.74,76.6Z"/><path class="cls-2" d="M498.74,76.6,477.45,97.88a15,15,0,0,1-21,0L435.18,76.6,498.74,13A44.7,44.7,0,0,1,498.74,76.6Z"/><path class="cls-3" d="M498.74,97.88,456.46,55.61,413.89,13C397.1-4,367.42-4,350.34,13l-21,21.29a44.69,44.69,0,0,0,0,63.56l84.54,84.54a44.47,44.47,0,0,0,31.78,13.19,43.5,43.5,0,0,0,31.78-13.19l21.29-21a45.45,45.45,0,0,0,13.19-31.78A44.93,44.93,0,0,0,498.74,97.88Z"/><path class="cls-4" d="M511.92,129.66a45.45,45.45,0,0,1-13.19,31.78l-21.29,21a43.49,43.49,0,0,1-31.78,13.19,44.47,44.47,0,0,1-31.78-13.19l-42.27-42.27,84.84-84.54,42.27,42.27A44.92,44.92,0,0,1,511.92,129.66Z"/><path class="cls-3" d="M182.65,413.67,140.38,371.4,98.11,329.13a44.7,44.7,0,0,0-63.56,0l-21.29,21a44.7,44.7,0,0,0,0,63.56l84.84,84.84a44.71,44.71,0,0,0,31.78,13.19,45.22,45.22,0,0,0,31.78-13.19l21-21.29A44.7,44.7,0,0,0,182.65,413.67Z"/><path class="cls-4" d="M182.65,477.22l-21,21.29a45.22,45.22,0,0,1-31.78,13.19,44.71,44.71,0,0,1-31.78-13.19L55.84,456.24l84.54-84.84,42.27,42.27A44.7,44.7,0,0,1,182.65,477.22Z"/><rect class="cls-1" x="167.53" y="210.83" width="176.94" height="89.88" transform="translate(-105.88 255.94) rotate(-45)"/><rect class="cls-2" x="183.41" y="249.2" width="176.94" height="44.94" transform="translate(-112.47 271.82) rotate(-45)"/><path class="cls-5" d="M267.49,371.4l-63.56-63.56-63.56-63.56a44.7,44.7,0,0,0-63.56,0l-21.28,21A45.45,45.45,0,0,0,42.35,297a44.92,44.92,0,0,0,13.19,31.78l63.56,63.86,63.56,63.56a46.15,46.15,0,0,0,32.08,13.19,45.45,45.45,0,0,0,31.78-13.19l21-21.28A44.69,44.69,0,0,0,267.49,371.4Z"/><path class="cls-6" d="M267.49,435l-21,21.28a45.45,45.45,0,0,1-31.78,13.19,46.15,46.15,0,0,1-32.08-13.19l-63.56-63.56,84.84-84.84,63.56,63.56A44.7,44.7,0,0,1,267.49,435Z"/><path class="cls-5" d="M456.46,182.43,329.35,55.31a45.6,45.6,0,0,0-63.86,0l-21,21.28a44.87,44.87,0,0,0,0,63.56l63.56,63.56,63.56,63.56a44.87,44.87,0,0,0,63.56,0l21.29-21A45.61,45.61,0,0,0,456.46,182.43Z"/><path class="cls-6" d="M456.46,246.28l-21.29,21a44.87,44.87,0,0,1-63.56,0l-63.56-63.56,84.84-84.84,63.56,63.56A45.6,45.6,0,0,1,456.46,246.28Z"/></svg>