<svg id="Layer_1" width="16" height="16" data-name="Layer 1" xmlns="http://www.w3.org/2000/svg" viewBox="0 0 600 600"><defs><style>.cls-1{fill:#ec407a;}.cls-2{fill:#eee;}.cls-3{fill:#34495e;}</style></defs><title>icon-six_months</title><rect class="cls-1" width="600" height="125"/><rect class="cls-2" y="125" width="600" height="475"/><path class="cls-3" d="M215.21,373q0-87.3,27.15-127.63t82.81-40.33a146,146,0,0,1,17.58,1.07A108,108,0,0,1,356,208.4v43.94a117.54,117.54,0,0,0-26.56-3.12q-22.28,0-36.53,9.76t-21.68,29.2q-7.42,19.44-9,54.59h2.15q6.82-16.22,18.75-24.51a47,47,0,0,1,27.54-8.3q28.71,0,44.72,23.34t16,66.7q0,45.31-21.09,71.77t-57.23,26.47q-38.28,0-58.11-31.64T215.21,373Zm78.32,80.47q11.72,0,18.85-12.89t7.13-40.23q0-22.06-6.35-34.87t-19.24-12.79q-11.54,0-18.75,11.92t-7.23,30.07q0,28.53,6.74,43.66T293.53,453.51Z"/></svg>