<svg id="Layer_1" width="16" height="16" data-name="Layer 1" xmlns="http://www.w3.org/2000/svg" viewBox="0 0 600 600"><defs><style>.cls-1{fill:#ec407a;}.cls-2{fill:#eee;}.cls-3{fill:#34495e;}</style></defs><title>icon-three_months</title><rect class="cls-1" width="600" height="125"/><rect class="cls-2" y="125" width="600" height="475"/><path class="cls-3" d="M362.67,273q0,27-13.28,45.22t-37.5,25.29v1.56q27,4.31,41.7,21.1t14.74,45.7q0,39.45-24.51,62.89t-67.09,23.44q-37.89,0-63.67-13.48V437.11A119.33,119.33,0,0,0,241,449.41a100.68,100.68,0,0,0,28.91,4.49q22.65,0,34.18-10.45t11.52-33.1q0-42.78-52.54-42.77H246.85V327.93h15.43q23.24,0,35.64-10.94t12.41-32.62q0-17-7.91-25.68T280.05,250q-22.07,0-43,18.75l-24-35.16q28.91-28.9,72.85-28.91,36.13,0,56.45,18.27T362.67,273Z"/></svg>