<?xml version="1.0" encoding="utf-8"?>
<!-- Generator: Adobe Illustrator 22.0.1, SVG Export Plug-In . SVG Version: 6.00 Build 0)  -->
<svg version="1.1" id="Layer_1" xmlns="http://www.w3.org/2000/svg" xmlns:xlink="http://www.w3.org/1999/xlink" x="0px" y="0px"
	 viewBox="0 0 224.9 224.9" style="enable-background:new 0 0 224.9 224.9;" xml:space="preserve">
<style type="text/css">
	.st0{clip-path:url(#SVGID_2_);fill:#484848;}
	.st1{fill:#29B6F6;}
	.st2{fill:#FFFFFF;}
	.st3{fill:#F0F0F0;}
	.st4{fill:#EBEBEB;}
	.st5{fill:#FDD835;}
</style>
<g>
	<g>
		<defs>
			<rect id="SVGID_1_" x="14.5" width="195.8" height="224.9"/>
		</defs>
		<clipPath id="SVGID_2_">
			<use xlink:href="#SVGID_1_"  style="overflow:visible;"/>
		</clipPath>
		<path class="st0" d="M16.9,210.1l53.6-53.6c3.2-3.2,8.3-3.2,11.5,0c3.2,3.2,3.2,8.3,0,11.5l-28.1,28.1H171L142.9,168
			c-3.2-3.2-3.2-8.3,0-11.5c3.2-3.2,8.3-3.2,11.5,0l53.6,53.6c3.2,3.2,3.2,8.3,0,11.5c-3.2,3.2-8.3,3.2-11.5,0L184.6,210H40.3
			l-11.9,11.5c-3.2,3.2-8.3,3.2-11.5,0C13.7,218.4,13.7,213.2,16.9,210.1L16.9,210.1z M16.9,210.1"/>
	</g>
	<path class="st1" d="M42.3,0.1h140c7.7,0,14,6.3,14,14v154c0,7.7-6.3,14-14,14h-140c-7.7,0-14-6.3-14-14v-154
		C28.3,6.4,34.6,0.1,42.3,0.1L42.3,0.1z M42.3,0.1"/>
	<rect x="42.3" y="42.1" class="st2" width="140" height="77"/>
	<rect x="42.3" y="41.9" class="st3" width="70" height="77.3"/>
	<rect x="77.3" y="14.1" class="st4" width="70" height="14"/>
	<path class="st2" d="M42.3,161.1h42v-28h-42V161.1z M140.3,133.1v28h42v-28H140.3z M140.3,133.1"/>
	<path class="st5" d="M49.3,154.1h28v-14h-28V154.1z M147.3,140.1v14h28v-14H147.3z M147.3,140.1"/>
</g>
</svg>
