<?xml version="1.0" encoding="utf-8"?>
<!-- Generator: Adobe Illustrator 22.0.1, SVG Export Plug-In . SVG Version: 6.00 Build 0)  -->
<svg version="1.1" id="Layer_1" xmlns="http://www.w3.org/2000/svg" xmlns:xlink="http://www.w3.org/1999/xlink" x="0px" y="0px"
	 viewBox="-49 141 512 512" style="enable-background:new -49 141 512 512;" xml:space="preserve">
<style type="text/css">
	.st0{fill:#B0BEC5;}
	.st1{fill:#78909C;}
	.st2{fill:#E53935;}
	.st3{fill:#D32F2F;}
	.st4{fill:#EBEBEC;}
	.st5{fill:#D7D8D9;}
	.st6{fill:#E57373;}
	.st7{fill:#EF5350;}
	.st8{fill:#FDD042;}
	.st9{fill:#E1A527;}
	.st10{fill:#606268;}
	.st11{fill:#B83C26;}
</style>
<path class="st0" d="M300.9,473.8h-51.2c-4.7,0-8.5,3.8-8.5,8.5v162.1c0,4.7,3.8,8.5,8.5,8.5h51.2c4.7,0,8.5-3.8,8.5-8.5V482.3
	C309.4,477.6,305.6,473.8,300.9,473.8z"/>
<path class="st1" d="M249.7,473.8h-85.3c-4.7,0-8.5,3.8-8.5,8.5v162.1c0,4.7,3.8,8.5,8.5,8.5h85.3c4.7,0,8.5-3.8,8.5-8.5V482.3
	C258.2,477.6,254.4,473.8,249.7,473.8z"/>
<path class="st2" d="M386.2,226.3H96.1c-42.3,0-76.8,34.5-76.8,76.8v179.2c0,4.7,3.8,8.5,8.5,8.5h426.7c4.7,0,8.5-3.8,8.5-8.5V303.1
	C463,260.8,428.5,226.3,386.2,226.3z"/>
<path class="st3" d="M53.4,482.3V303.1c0-42.3,34.5-76.8,76.8-76.8H96.1c-42.3,0-76.8,34.5-76.8,76.8v179.2c0,4.7,3.8,8.5,8.5,8.5
	h34.1C57.2,490.9,53.4,487,53.4,482.3z"/>
<path class="st4" d="M215.5,303.1h-256c-4.7,0-8.5,3.8-8.5,8.5v170.7c0,4.7,3.8,8.5,8.5,8.5h256c4.7,0,8.5-3.8,8.5-8.5V311.7
	C224.1,307,220.2,303.1,215.5,303.1z"/>
<path class="st5" d="M92.9,446.3l131.2-103.7v-22.4H-49v22.4L82.2,446.3C85.3,448.8,89.8,448.8,92.9,446.3z"/>
<path class="st4" d="M223.6,308.8c-1.2-3.4-4.4-5.7-8.1-5.7h-256c-3.5,0-6.7,2.2-7.9,5.4c-1.3,3.4-0.3,7.5,2.6,9.8l128,102.4
	c3.1,2.5,7.6,2.5,10.7,0l128-102.4C223.7,316.1,224.8,312.3,223.6,308.8z"/>
<path class="st6" d="M-3.8,618.9h170.1c3.9,0,7.2-2.6,8.2-6.3L207,490.9H19.3L-12,608.1C-13.4,613.6-9.4,618.9-3.8,618.9z"/>
<path class="st7" d="M386.2,226.3h-256c42.3,0,76.8,34.5,76.8,76.8v187.7h247.5c4.7,0,8.5-3.8,8.5-8.5V303.1
	C463,260.8,428.5,226.3,386.2,226.3z"/>
<circle class="st8" cx="335" cy="320.2" r="42.7"/>
<circle class="st9" cx="335" cy="320.2" r="25.6"/>
<path class="st10" d="M335,328.7c-4.7,0-8.5-3.8-8.5-8.5V149.5c0-4.7,3.8-8.5,8.5-8.5c4.7,0,8.5,3.8,8.5,8.5v170.7
	C343.5,324.9,339.7,328.7,335,328.7z"/>
<path class="st8" d="M403.3,141H335c-4.7,0-8.5,3.8-8.5,8.5v34.1c0,4.7,3.8,8.5,8.5,8.5h68.3c4.7,0,8.5-3.8,8.5-8.5v-34.1
	C411.8,144.8,408,141,403.3,141z"/>
<g>
	<path class="st11" d="M377.7,456.7H266.7c-4.7,0-8.5-3.8-8.5-8.5s3.8-8.5,8.5-8.5h110.9c4.7,0,8.5,3.8,8.5,8.5
		S382.4,456.7,377.7,456.7z"/>
	<path class="st11" d="M420.3,456.7h-17.1c-4.7,0-8.5-3.8-8.5-8.5s3.8-8.5,8.5-8.5h17.1c4.7,0,8.5,3.8,8.5,8.5
		S425,456.7,420.3,456.7z"/>
</g>
</svg>
