<svg id="Layer_1" data-name="Layer 1" xmlns="http://www.w3.org/2000/svg" xmlns:xlink="http://www.w3.org/1999/xlink" viewBox="0 0 295.17 422.17"><defs><style>.cls-1{fill:none;}.cls-2{clip-path:url(#clip-path);}.cls-3{fill:#ffa000;}.cls-4{fill:#fff;}.cls-5{clip-path:url(#clip-path-2);}</style><clipPath id="clip-path" transform="translate(-6.39 -14.07)"><rect class="cls-1" x="6.4" y="10" width="302.03" height="436"/></clipPath><clipPath id="clip-path-2" transform="translate(-6.39 -14.07)"><rect class="cls-1" x="78.81" y="86" width="147.71" height="174.09"/></clipPath></defs><title>icon-coliving</title><g class="cls-2"><path class="cls-3" d="M258.33,57.27a147.65,147.65,0,0,0-208.72,0C-2.32,109.21-8.16,207,35.93,265.76L154,436.24,272.06,265.76c44-58.75,38.21-156.55-13.73-208.49ZM155.42,208.92a48.73,48.73,0,1,1,48.72-48.73,48.71,48.71,0,0,1-48.72,48.73Zm0,0" transform="translate(-6.39 -14.07)"/></g><rect class="cls-3" x="57.58" y="80.3" width="165" height="136"/><path class="cls-4" d="M115.28,134.1a5.89,5.89,0,0,0,2.51-.57c.09,0,5.33-2.52,10.33-4.82a18,18,0,0,1-10.59-8l-4.76,2.23a5.88,5.88,0,0,0,2.51,11.2Zm0,0" transform="translate(-6.39 -14.07)"/><path class="cls-4" d="M180.35,123.3c5.67,2.6,11.68,5.44,11.78,5.49a6.73,6.73,0,0,0,2.82.63,6.59,6.59,0,0,0,2.81-12.55c-.25-.12-2.63-1.25-5.76-2.71a20.26,20.26,0,0,1-11.65,9.14Zm0,0" transform="translate(-6.39 -14.07)"/><path class="cls-4" d="M193.23,104.27A18.27,18.27,0,1,1,175,86a18.28,18.28,0,0,1,18.27,18.27Zm0,0" transform="translate(-6.39 -14.07)"/><g class="cls-5"><path class="cls-4" d="M149.17,104.27A18.27,18.27,0,1,1,130.91,86a18.27,18.27,0,0,1,18.26,18.27Zm0,0" transform="translate(-6.39 -14.07)"/><path class="cls-4" d="M134.38,124.35l-3.68,2.82-2.8-2.55c-6.1,2.79-13.44,6.25-13.53,6.3a7.77,7.77,0,0,1-7-.17l0,0c-7.06-5.67-13-15.47-15-19.69a7.09,7.09,0,1,0-12.76,6.19c1.25,2.58,12.72,25.31,30,30.73a24.67,24.67,0,0,0,3,.72c.11,4.37.32,12.78.32,15.6,0,7.2,1.48,9.19,1.48,9.19v8.78h.13c0,.1,0,.22,0,.33v67.91a8.38,8.38,0,1,0,16.76,0V182.63a3.31,3.31,0,0,0,0-.33h1.27a3.31,3.31,0,0,0,0,.33v67.91a8.39,8.39,0,1,0,16.77,0V182.63c0-.11,0-.23,0-.33h0v-7.73c0-.28,0-.56,0-.83a25.41,25.41,0,0,0,1.36-8.34v-35c-3,.25-12.09-6.34-13.2-6.84-.74.21-2.14.69-2.9.82Zm0,0" transform="translate(-6.39 -14.07)"/><path class="cls-4" d="M222.17,108.43a7.1,7.1,0,0,0-9.48,3.27c-2,4.1-7.61,13.47-14.39,19.19a7.79,7.79,0,0,1-3.63.92,7.94,7.94,0,0,1-3.38-.76c-.1,0-7.43-3.51-13.54-6.3L175,127.31l-3.68-3.47a18.38,18.38,0,0,1-2.25-.51c-1.52.7-3.34,1.64-5.21,2.74a6.73,6.73,0,0,0,0-2.41c.83-.48,1.65-.93,2.46-1.36a20.24,20.24,0,0,1-9.83-9.64c-1.14.69-2.25,1.39-3.31,2.11l-4.23-2.4a20.35,20.35,0,0,1-9.68,9.8c3.49,1.82,12,6.51,14.34,8.18a6.59,6.59,0,0,0,1.64.81v34.38a25.35,25.35,0,0,0,1.36,8.33,7.75,7.75,0,0,0,0,.84v7.72h.05c0,.11,0,.22,0,.33v67.91a8.39,8.39,0,0,0,16.77,0V182.76c0-.11,0-.22,0-.33h1.26c0,.11,0,.22,0,.33v67.91a8.38,8.38,0,1,0,16.76,0V182.76c0-.11,0-.22,0-.33h.1v-8.78s1.49-2,1.49-9.19c0-2.74.2-10.78.31-15.23.77-.17,1.54-.35,2.32-.59,17.3-5.42,28.76-28.16,30-30.73a7.11,7.11,0,0,0-3.27-9.48Zm0,0" transform="translate(-6.39 -14.07)"/></g></svg>