<svg id="Layer_1" data-name="Layer 1" xmlns="http://www.w3.org/2000/svg" viewBox="0 0 512 512"><defs><style>.cls-1{fill:#9e9e9e;}.cls-2{fill:#607d8b;}.cls-3{opacity:0.1;isolation:isolate;}.cls-4{fill:#29b6f6;}.cls-5{fill:#81d4fa;}</style></defs><title>pool</title><path class="cls-1" d="M131.6,384.13A20.61,20.61,0,0,1,111,363.52V146.74a81.6,81.6,0,0,1,81.51-81.5,20.61,20.61,0,0,1,0,41.22,40.33,40.33,0,0,0-40.28,40.28V363.52A20.61,20.61,0,0,1,131.6,384.13Z"/><path class="cls-2" d="M365.34,180.75H154.27a20.61,20.61,0,1,1,0-41.22H365.34Z"/><path class="cls-2" d="M365.34,279.95H154.27a20.61,20.61,0,1,1,0-41.22H365.34Z"/><rect class="cls-3" x="314.65" y="238.72" width="50.68" height="41.22"/><path class="cls-3" d="M314.65,146.74v34h50.69V139.52H314.89C314.74,141.91,314.65,144.31,314.65,146.74Z"/><path class="cls-1" d="M366.18,384.13a20.61,20.61,0,0,1-20.61-20.61V146.74a81.6,81.6,0,0,1,81.51-81.5,20.61,20.61,0,1,1,0,41.22,40.33,40.33,0,0,0-40.28,40.28V363.52A20.61,20.61,0,0,1,366.18,384.13Z"/><path class="cls-4" d="M486.44,358.28H23.6L0,384v51.5a65.16,65.16,0,0,1,73.14,0h0a65.16,65.16,0,0,0,73.14,0h0a65.16,65.16,0,0,1,73.14,0h0a65.16,65.16,0,0,0,73.14,0h0a65.16,65.16,0,0,1,73.14,0h0a65.16,65.16,0,0,0,73.14,0h0a65.16,65.16,0,0,1,73.14,0V384Z"/><path class="cls-5" d="M0,332.53a65.16,65.16,0,0,1,73.14,0h0a65.16,65.16,0,0,0,73.14,0h0a65.16,65.16,0,0,1,73.14,0h0a65.16,65.16,0,0,0,73.14,0h0a65.16,65.16,0,0,1,73.14,0h0a65.16,65.16,0,0,0,73.14,0h0a65.16,65.16,0,0,1,73.14,0V384a65.16,65.16,0,0,0-73.14,0h0a65.16,65.16,0,0,1-73.14,0h0a65.16,65.16,0,0,0-73.14,0h0a65.16,65.16,0,0,1-73.14,0h0a65.16,65.16,0,0,0-73.14,0h0a65.16,65.16,0,0,1-73.14,0h0A65.16,65.16,0,0,0,0,384v-51.5Z"/></svg>