<svg id="Layer_1" data-name="Layer 1" xmlns="http://www.w3.org/2000/svg" viewBox="0 0 512 512"><defs><style>.cls-1{fill:#fff176;}.cls-2{fill:#fff9c4;}.cls-3{fill:#ffb74d;}.cls-4{fill:#fff59d;}.cls-5{fill:#81d4fa;}.cls-6{fill:#b3e5fc;}.cls-7{fill:#769ca5;}.cls-8{fill:#dbdbdb;}</style></defs><title>icon-laundry</title><path class="cls-1" d="M411.83,512H100.17a44.52,44.52,0,0,1-44.52-44.52V22.26A22.26,22.26,0,0,1,77.91,0H434.09a22.26,22.26,0,0,1,22.26,22.26V467.48A44.52,44.52,0,0,1,411.83,512Z"/><path class="cls-2" d="M456.35,22.26V89H55.65V22.26A22.26,22.26,0,0,1,77.91,0H434.09A22.26,22.26,0,0,1,456.35,22.26Z"/><path class="cls-3" d="M205.91,122.43H55.65V44.52H205.91a39,39,0,0,1,39,39h0A39,39,0,0,1,205.91,122.43ZM322.78,77.91h0a22.26,22.26,0,0,0-22.26-22.26h0a22.26,22.26,0,0,0-22.26,22.26h0a22.26,22.26,0,0,0,22.26,22.26h0A22.26,22.26,0,0,0,322.78,77.91Zm77.91,0h0a22.26,22.26,0,0,0-22.26-22.26h0a22.26,22.26,0,0,0-22.26,22.26h0a22.26,22.26,0,0,0,22.26,22.26h0A22.26,22.26,0,0,0,400.7,77.91Zm11.13,233.74A155.83,155.83,0,1,0,256,467.48,155.83,155.83,0,0,0,411.83,311.65Z"/><path class="cls-4" d="M111.3,89H55.65V44.52H205.91a39,39,0,0,1,39,39h0a39.39,39.39,0,0,1-.4,5.57H111.3Z"/><path class="cls-5" d="M256,423a111.3,111.3,0,1,1,111.3-111.3A111.31,111.31,0,0,1,256,423Z"/><path class="cls-6" d="M367.3,311.65a111.35,111.35,0,0,1-155.83,102,111.34,111.34,0,0,0,0-204.07,111.35,111.35,0,0,1,155.83,102Z"/><path class="cls-7" d="M331.13,311.65a8.35,8.35,0,0,1-16.7,0A58.5,58.5,0,0,0,256,253.22a8.35,8.35,0,1,1,0-16.7A75.21,75.21,0,0,1,331.13,311.65ZM256,370.09a58.5,58.5,0,0,1-58.43-58.43,8.35,8.35,0,0,0-16.7,0A75.21,75.21,0,0,0,256,386.78a8.35,8.35,0,0,0,0-16.7Z"/><path class="cls-8" d="M300.52,89h0a11.13,11.13,0,0,1-11.13-11.13h0a11.13,11.13,0,0,1,11.13-11.13h0a11.13,11.13,0,0,1,11.13,11.13h0A11.13,11.13,0,0,1,300.52,89Zm89-11.13h0a11.13,11.13,0,0,0-11.13-11.13h0A11.13,11.13,0,0,0,367.3,77.91h0A11.13,11.13,0,0,0,378.43,89h0A11.13,11.13,0,0,0,389.57,77.91Z"/></svg>