<?xml version="1.0" encoding="utf-8"?>
<!-- Generator: Adobe Illustrator 22.0.1, SVG Export Plug-In . SVG Version: 6.00 Build 0)  -->
<svg version="1.1" id="Layer_1" xmlns="http://www.w3.org/2000/svg" xmlns:xlink="http://www.w3.org/1999/xlink" x="0px" y="0px"
	 viewBox="0 0 368.2 365.8" style="enable-background:new 0 0 368.2 365.8;" xml:space="preserve">
<style type="text/css">
	.st0{fill:#59595A;}
	.st1{clip-path:url(#SVGID_2_);fill:#59595A;}
	.st2{fill:#E5C400;}
	.st3{fill:#90C5FF;}
	.st4{fill:#FFFFFF;}
</style>
<g>
	<path class="st0" d="M128.5,332.7c0,17.7-14.4,32.1-32.1,32.1c-17.7,0-32.1-14.4-32.1-32.1c0-17.7,14.4-32.1,32.1-32.1
		C114.1,300.6,128.5,315,128.5,332.7L128.5,332.7z M128.5,332.7"/>
	<path class="st0" d="M303.3,332.7c0,17.7-14.4,32.1-32.1,32.1c-17.7,0-32.1-14.4-32.1-32.1c0-17.7,14.4-32.1,32.1-32.1
		C288.9,300.6,303.3,315,303.3,332.7L303.3,332.7z M303.3,332.7"/>
	<g>
		<defs>
			<rect id="SVGID_1_" width="367.9" height="365.8"/>
		</defs>
		<clipPath id="SVGID_2_">
			<use xlink:href="#SVGID_1_"  style="overflow:visible;"/>
		</clipPath>
		<rect y="98" class="st1" width="33.5" height="74.7"/>
		<rect x="334.5" y="98" class="st1" width="33.5" height="74.7"/>
	</g>
	<path class="st2" d="M334.5,332.7V64.9c0-41.6-33.7-64.2-75.4-64.2H108.4c-41.6,0-75.4,22.6-75.4,64.2v267.8H334.5z M58.2,226.8
		V76.1h251.2v150.7H58.2z M58.2,226.8"/>
	<rect x="58.2" y="76.1" class="st3" width="251.2" height="150.7"/>
	<path class="st4" d="M101.2,285.7c0,5.4-4.4,9.9-9.9,9.9H67.6c-5.4,0-9.8-4.4-9.8-9.9v-23.8c0-5.4,4.4-9.8,9.8-9.8h23.8
		c5.4,0,9.9,4.4,9.9,9.8V285.7z M101.2,285.7"/>
	<path class="st4" d="M310.4,287.9c0,5.4-4.4,9.9-9.9,9.9h-23.8c-5.4,0-9.8-4.4-9.8-9.9v-23.8c0-5.4,4.4-9.8,9.8-9.8h23.8
		c5.4,0,9.9,4.4,9.9,9.8V287.9z M310.4,287.9"/>
	<g>
		<defs>
			<rect id="SVGID_3_" y="0.8" width="367.9" height="365"/>
		</defs>
		<clipPath id="SVGID_4_">
			<use xlink:href="#SVGID_3_"  style="overflow:visible;"/>
		</clipPath>
		<g style="clip-path:url(#SVGID_4_);">
			
				<image style="overflow:visible;" width="1534" height="1521" xlink:href="8721D875.jpg"  transform="matrix(0.24 0 0 0.24 0 0.7664)">
			</image>
		</g>
	</g>
</g>
</svg>
