<?xml version="1.0" encoding="utf-8"?>
<!-- Generator: Adobe Illustrator 22.0.1, SVG Export Plug-In . SVG Version: 6.00 Build 0)  -->
<svg version="1.1" id="Layer_1" xmlns="http://www.w3.org/2000/svg" xmlns:xlink="http://www.w3.org/1999/xlink" x="0px" y="0px"
	 viewBox="-49 141 512 512" style="enable-background:new -49 141 512 512;" xml:space="preserve">
<style type="text/css">
	.st0{fill:#8FA3B3;}
	.st1{fill:#53565C;}
	.st2{fill:#FF7043;}
	.st3{fill:#FF5722;}
	.st4{fill:#E6EEFF;}
	.st5{fill:#5C5F66;}
	.st6{fill:#F5B420;}
	.st7{fill:#F09C12;}
	.st8{fill:#C9D3D9;}
</style>
<path class="st0" d="M440.7,341.3H374c-9.2,0-16.7-7.5-16.7-16.7V224.5c0-9.2,7.5-16.7,16.7-16.7c9.2,0,16.7,7.5,16.7,16.7V308h50.1
	c9.2,0,16.7,7.5,16.7,16.7C457.4,333.9,450,341.3,440.7,341.3z"/>
<path class="st1" d="M406.8,541.7c-27.3,0-49.6-22.2-49.6-49.6v-67.8c0-8.9-7.3-16.2-16.2-16.2h-33.9c-9.2,0-16.7-7.5-16.7-16.7
	c0-9.2,7.5-16.7,16.7-16.7h33.9c27.3,0,49.6,22.2,49.6,49.6v67.8c0,8.9,7.3,16.2,16.2,16.2c9.6,0,17.2-7.1,17.2-16.2V329.7l-59-88.5
	h-57.8c-9.2,0-16.7-7.5-16.7-16.7s7.5-16.7,16.7-16.7H374c5.6,0,10.8,2.8,13.9,7.4l66.8,100.2c1.8,2.7,2.8,6,2.8,9.3v167.5
	C457.4,519.9,435.2,541.7,406.8,541.7z"/>
<path class="st2" d="M307.2,586.2H6.7c-9.2,0-16.7-7.5-16.7-16.7V191.1C-10,163.5,12.4,141,40,141h233.7c27.6,0,50.1,22.5,50.1,50.1
	v378.4C323.9,578.7,316.4,586.2,307.2,586.2z"/>
<path class="st3" d="M273.8,141H156.9v445.2h150.3c9.2,0,16.7-7.5,16.7-16.7V191.1C323.9,163.5,301.4,141,273.8,141z"/>
<path class="st4" d="M240.4,341.3h-167c-9.2,0-16.7-7.5-16.7-16.7V224.5c0-9.2,7.5-16.7,16.7-16.7h167c9.2,0,16.7,7.5,16.7,16.7
	v100.2C257.1,333.9,249.6,341.3,240.4,341.3z"/>
<path class="st5" d="M307.2,653H6.7c-27.6,0-50.1-22.5-50.1-50.1c0-27.6,22.5-50.1,50.1-50.1h300.5c27.6,0,50.1,22.5,50.1,50.1
	C357.3,630.5,334.8,653,307.2,653z"/>
<path class="st6" d="M171.9,373.7c-2.8-5.8-8.6-9.5-15-9.5c-6.5,0-12.2,3.7-15,9.5c-32.7,68.1-35.1,69.7-35.1,84.5
	c0,27.6,22.5,50.1,50.1,50.1s50.1-22.5,50.1-50.1C207,443.5,204.8,442.2,171.9,373.7z"/>
<path class="st1" d="M307.2,552.8H156.9V653h150.3c27.6,0,50.1-22.5,50.1-50.1C357.3,575.3,334.8,552.8,307.2,552.8z"/>
<path class="st7" d="M207,458.2c0,27.6-22.5,50.1-50.1,50.1v-144c6.5,0,12.2,3.7,15,9.5C204.8,442.2,207,443.5,207,458.2z"/>
<path class="st8" d="M240.4,207.8h-83.5v133.6h83.5c9.2,0,16.7-7.5,16.7-16.7V224.5C257.1,215.3,249.6,207.8,240.4,207.8z"/>
</svg>
