<?xml version="1.0" encoding="utf-8"?>
<!-- Generator: Adobe Illustrator 22.0.1, SVG Export Plug-In . SVG Version: 6.00 Build 0)  -->
<svg version="1.1" id="Layer_1" xmlns="http://www.w3.org/2000/svg" xmlns:xlink="http://www.w3.org/1999/xlink" x="0px" y="0px"
	 viewBox="-49 141 512 512" style="enable-background:new -49 141 512 512;" xml:space="preserve">
<style type="text/css">
	.st0{fill:#26C6DA;}
	.st1{fill:#FFFFFF;}
	.st2{fill:#FFEE58;}
	.st3{fill:#F06292;}
</style>
<circle class="st0" cx="207" cy="397" r="254"/>
<g>
	<path class="st1" d="M344.4,329.5l30.6-12.7c-7.9-16.3-17.9-31.3-29.9-44.6l-23.4,23.4C330.7,305.8,338.4,317.2,344.4,329.5z"/>
	<path class="st1" d="M360.6,389.3h33.1c-1-18.4-4.6-36.1-10.4-52.7l-30.6,12.7C357,361.9,359.7,375.4,360.6,389.3z"/>
	<path class="st1" d="M330,257.1c-13.3-11.9-28.3-22-44.6-29.9l-12.7,30.6c12.3,6.1,23.7,13.8,33.9,22.7L330,257.1z"/>
	<path class="st1" d="M352.6,450.7l30.6,12.7c5.9-16.6,9.5-34.3,10.4-52.7h-33.1C359.7,424.6,357,438,352.6,450.7z"/>
	<path class="st1" d="M202.3,558.7c-87.5,0-158.7-71.2-158.7-158.7c0-86.7,70-157.4,156.4-158.6v20.3l47.9-37.3L200,187v21.3
		C95.3,209.5,10.5,295,10.5,400c0,105.7,86,191.7,191.8,191.7c76,0,141.7-44.4,172.8-108.6l-30.6-12.7
		C318.5,522.7,264.5,558.7,202.3,558.7z"/>
</g>
<g>
	<path class="st2" d="M130.6,382.3c2.2-3.2,3.4-6.2,3.4-9.2s-1-5.4-2.9-7.4s-4.4-3-7.5-3c-5.6,0-10.9,4-15.8,11.9L92,365.2
		c4.1-6.4,8.7-11.3,13.6-14.6c4.9-3.3,11.2-4.9,18.9-4.9s14.4,2.4,20.2,7.3c5.8,4.9,8.7,11.5,8.7,19.8c0,4.6-1.2,8.9-3.5,13.1
		s-6.6,9.5-12.9,16l-16,16.6h35v17.7H93.5v-14.7l26-26.6C124.7,389.7,128.4,385.4,130.6,382.3z"/>
	<path class="st2" d="M203,398.1v-15.5h19v15.5h10v17.1h-10v21.2h-19v-21.2h-35.6v-15.1l31.6-52.4h21.6l-30,50.3H203V398.1z"/>
	<path class="st3" d="M265.3,399.6v36.8h-19v-94.1h19v33.5c5.7-5.8,12.2-8.7,19.3-8.7c7.1,0,13.2,2.5,18.1,7.6
		c4.9,5.1,7.4,11.8,7.4,20.3v41.5h-19v-37.3c0-10.5-3.8-15.7-11.5-15.7c-3.8,0-7.1,1.4-9.9,4.1C266.7,390.2,265.3,394.3,265.3,399.6
		z"/>
</g>
</svg>
