<svg id="Layer_1" data-name="Layer 1" xmlns="http://www.w3.org/2000/svg" viewBox="0 0 512 512"><defs><style>.cls-1{fill:#fff176;}.cls-2{fill:#fff9c4;}.cls-3{fill:#4b5a6b;}.cls-4{fill:#e57373;}.cls-5{fill:#80deea;}</style></defs><title>icon-ac</title><path class="cls-1" d="M512,76.16V194.78a23.14,23.14,0,0,1-23.13,23.13H23.13A23.13,23.13,0,0,1,0,194.78V76.16A44.32,44.32,0,0,1,44.31,31.85H467.68A44.32,44.32,0,0,1,512,76.16Z"/><path class="cls-2" d="M512,76.16V194.78a23.14,23.14,0,0,1-23.13,23.13H246.14C364.28,155.51,365.25,31.85,365.25,31.85H467.68A44.32,44.32,0,0,1,512,76.16Z"/><path class="cls-3" d="M448.08,158H63.92a23.45,23.45,0,0,0-23.45,23.45v36.5H471.53v-36.5A23.45,23.45,0,0,0,448.08,158Z"/><rect class="cls-1" x="85.28" y="157.97" width="15.67" height="60.24"/><rect class="cls-1" x="215.58" y="157.97" width="15.67" height="60.24"/><rect class="cls-1" x="150.43" y="157.97" width="15.67" height="60.24"/><rect class="cls-1" x="345.88" y="157.97" width="15.67" height="60.24"/><rect class="cls-1" x="280.73" y="157.97" width="15.67" height="60.24"/><rect class="cls-1" x="411.03" y="157.97" width="15.67" height="60.24"/><circle class="cls-4" cx="75.44" cy="95.54" r="19.76"/><circle class="cls-4" cx="149.8" cy="95.54" r="19.76"/><path class="cls-5" d="M384,480.15a7.84,7.84,0,0,1-7.84-7.84c0-17.75,4.4-27.1,8.28-35.34,3.64-7.74,6.78-14.42,6.78-28.66s-3.14-20.93-6.78-28.66c-3.88-8.24-8.28-17.59-8.28-35.34s4.4-27.09,8.28-35.33c3.64-7.73,6.78-14.41,6.78-28.66a7.84,7.84,0,1,1,15.67,0c0,17.75-4.4,27.09-8.28,35.33-3.64,7.73-6.78,14.41-6.78,28.66S395,365.24,398.62,373c3.88,8.24,8.28,17.59,8.28,35.34s-4.4,27.1-8.28,35.34c-3.64,7.74-6.78,14.42-6.78,28.66A7.84,7.84,0,0,1,384,480.15Z"/><path class="cls-5" d="M112.94,480.15a7.84,7.84,0,0,1-7.84-7.84c0-17.75,4.4-27.1,8.28-35.34,3.64-7.73,6.78-14.42,6.78-28.66s-3.14-20.93-6.78-28.66c-3.88-8.24-8.28-17.59-8.28-35.34s4.4-27.09,8.28-35.33c3.64-7.73,6.78-14.41,6.78-28.66a7.84,7.84,0,1,1,15.67,0c0,17.75-4.4,27.09-8.28,35.33-3.64,7.73-6.78,14.41-6.78,28.66s3.14,20.93,6.78,28.66c3.88,8.24,8.28,17.59,8.28,35.34s-4.4,27.1-8.28,35.34c-3.64,7.74-6.78,14.42-6.78,28.66A7.84,7.84,0,0,1,112.94,480.15Z"/><path class="cls-5" d="M248.47,480.15a7.84,7.84,0,0,1-7.84-7.84c0-17.75,4.4-27.1,8.28-35.34,3.64-7.74,6.78-14.42,6.78-28.66s-3.14-20.93-6.78-28.66c-3.88-8.24-8.28-17.59-8.28-35.34s4.4-27.09,8.28-35.33c3.64-7.73,6.78-14.41,6.78-28.66a7.84,7.84,0,1,1,15.67,0c0,17.75-4.4,27.09-8.28,35.33-3.64,7.73-6.78,14.41-6.78,28.66s3.14,20.93,6.78,28.66c3.88,8.24,8.28,17.59,8.28,35.34s-4.4,27.1-8.28,35.34c-3.64,7.74-6.78,14.42-6.78,28.66A7.84,7.84,0,0,1,248.47,480.15Z"/></svg>